<?xml version="1.0" encoding="utf-8"?>
<!-- Generator: Adobe Illustrator 16.0.4, SVG Export Plug-In . SVG Version: 6.00 Build 0)  -->
<!DOCTYPE svg PUBLIC "-//W3C//DTD SVG 1.1//EN" "http://www.w3.org/Graphics/SVG/1.1/DTD/svg11.dtd">
<svg version="1.1" id="Layer_1" xmlns="http://www.w3.org/2000/svg" xmlns:xlink="http://www.w3.org/1999/xlink" x="0px" y="0px"
	 width="309.628px" height="157.032px" viewBox="0 0 309.628 157.032" enable-background="new 0 0 309.628 157.032"
	 xml:space="preserve">
<path fill="#231F20" d="M228.844,147.635l-0.201-0.053C228.643,147.582,228.704,147.608,228.844,147.635z"/>
<path fill="#231F20" d="M111.592,44.795c6.645-12.929,28.64-9.727,40.184-6.867c22.48,5.565,44.93,11.395,67.379,17.103
	c9.264,2.355,18.916,4.399,27.67,8.326c11.661,5.229,15.581,18.099,14.969,29.915c-1.104,21.312-14.812,41.532-35.771,47.137
	c-23.206,6.203-49.187-3.377-71.728-9.182c-10.037-2.585-20.073-5.17-30.11-7.755c-10.539-2.715-20.639-6.355-31.383-8.522
	c-17.986-3.629-48.311-12.232-45.857-36.475c0.496-4.888,0.683-9.382,2.682-13.977c3.007-6.911,10.8-8.352,17.51-8.2
	c11.096,0.25,22.127,4.258,32.894,6.748c26.126,6.047,52.378,11.547,78.464,17.771c7.218,1.724,21.884,3.01,25.907,10.134
	c2.199,3.893,2.066,9.046,3.228,13.301c1.375,5.04,4.405,8.893,8.766,11.705c14.065,9.067,36.153,2.935,38.133-15.104
	c0.88-8.036-3.503-18.868-10.035-23.682c-6.979-5.142-16.69-7.246-24.891-9.433c-21.751-5.796-44.069-9.351-66.056-14.117
	c-16.779-3.64-33.645-6.863-50.465-10.307c-11.18-2.289-24.865,0.282-33.208,8.384c-1.629,1.581,0.532,4.214,2.302,2.714
	c16.214-13.742,40.641-3.945,58.725-0.081c16.178,3.458,32.319,7.078,48.541,10.323c14.962,2.992,29.971,5.937,44.625,10.231
	c13.168,3.857,25.142,9.132,24.71,25.423c-0.422,15.99-22.001,16.481-31.488,9.221c-7.957-6.089-3.239-19.186-11.292-25.661
	c-6.648-5.347-17.44-6.533-25.497-8.468c-12.979-3.116-26.01-6.013-39.035-8.923c-13.145-2.937-26.303-5.824-39.43-8.847
	c-10.355-2.386-20.622-5.656-31.206-6.831C59.917,49.589,49.6,52.31,44.293,62.524c-3.045,5.861-3.465,13.885-2.95,20.508
	c1.855,23.818,28.739,33.131,48.411,36.901c11.436,2.191,22.143,5.993,33.34,8.83c10.246,2.599,20.494,5.196,30.741,7.794
	c19.52,4.95,39.156,11.048,59.509,10.542c32.49-0.805,54.638-28.746,53.046-60.495c-0.788-15.771-11.598-25.804-25.846-30.248
	c-20.138-6.281-41.118-10.232-61.642-15.025c-14.354-3.353-28.535-8.185-43.392-8.404c-9.566-0.143-21.336,1.612-25.958,11.113
	C108.935,45.314,110.965,46.017,111.592,44.795z"/>
<path fill="#231F20" d="M155.73,91.498c8.869,1.808,18.213,3.33,26.003,8.243c7.089,4.473,9.111,13.176,11.744,20.53
	c5.07,14.155,15.242,17.11,29.304,15.076c1.083-0.156,0.971-1.758-0.073-1.878c-9.484-1.083-18.076-1.341-23.309-10.458
	c-3.127-5.447-4.569-11.712-7.649-17.219c-7.045-12.604-23.289-13.409-35.883-15.737C154.941,89.884,154.831,91.313,155.73,91.498z"
	/>
<path fill="#231F20" d="M229.216,98.004c5.084,3.514,12.861,4.529,17.239-0.702c0.846-1.01-0.642-2.053-1.57-1.432
	c-4.854,3.249-9.538,3.865-14.772,0.853C229.253,96.229,228.374,97.423,229.216,98.004z"/>
<path fill="#231F20" d="M236.525,90.539c2.818,5.845,1.002,12.964-4.35,16.607c-0.975,0.664,0.096,2.299,1.118,1.73
	c6.396-3.559,7.742-12.842,4.605-18.991C237.454,89.016,236.096,89.652,236.525,90.539z"/>
<path fill="#231F20" d="M230.048,104.206c3.333-0.022,6.245-1.208,8.783-3.372c0.706-0.602-0.037-1.746-0.876-1.355
	c-1.205,0.562-2.227,1.431-3.364,2.112c-1.423,0.851-2.744,1.166-4.409,1.207C229.287,102.819,229.133,104.213,230.048,104.206z"/>
<path fill="#231F20" d="M242.059,91.558c-0.818,2.718-2.529,4.979-4.172,7.252c-0.65,0.896,0.772,1.894,1.401,0.982
	c1.674-2.418,3.359-4.857,4.097-7.743C243.606,91.181,242.326,90.676,242.059,91.558z"/>
<path fill="#231F20" d="M231.241,93.629c2.573,1.115,4.742,2.678,6.541,4.835c2.092,2.506,1.924,4.98,2.241,7.981
	c0.099,0.916,1.278,0.814,1.614,0.145c3.107-6.196-5.05-12.436-9.926-14.234C230.882,92.05,230.442,93.284,231.241,93.629z"/>
<path fill="#FFFFFF" d="M89.691,53.701c8.181-1.026,19.429-7.496,25.567,0.338c3.073,3.749,2.726,7.164,8.864,8.186
	c6.818,1.02,13.985-3.071,20.451-4.775c6.145-1.365,9.204-1.704,12.617,3.408c3.073,4.433,3.751,8.523,9.89,10.227
	c10.225,3.068,27.612-10.227,34.087,1.024c2.388,4.771,0.68,7.499,7.505,8.181c7.153,1.023,13.976-1.367,20.108-4.431"/>
<path fill="#010101" d="M89.946,55.73c2.846-0.361,5.799-1.263,8.71-2.039c2.905-0.783,5.758-1.435,8.194-1.429
	c1.412,0,2.669,0.209,3.774,0.674c1.108,0.47,2.095,1.184,3.024,2.364l0.014,0.017l0.014,0.019c0.659,0.805,1.147,1.604,1.627,2.438
	c0.719,1.236,1.403,2.624,2.721,3.886c0.655,0.622,1.461,1.18,2.417,1.613c0.957,0.436,2.058,0.755,3.346,0.969l0.017,0.003
	l0.018,0.003c0.847,0.127,1.69,0.184,2.527,0.184c3.452-0.005,6.766-0.941,9.911-2.008c3.142-1.072,6.136-2.289,8.835-2.997
	l-0.521-1.978l0.443,1.997c2.247-0.504,3.992-0.828,5.283-0.82c1.109,0.007,1.848,0.19,2.61,0.64
	c0.761,0.453,1.605,1.27,2.578,2.728l0.011,0.015l0.009,0.016c1.416,2.021,2.332,4.13,3.832,6.186
	c0.752,1.021,1.67,2.011,2.854,2.85c1.183,0.841,2.613,1.519,4.341,1.997l0.546-1.972l-0.589,1.959
	c1.346,0.403,2.739,0.559,4.146,0.559c3.776-0.01,7.705-1.088,11.52-2.096c3.802-1.021,7.492-1.97,10.434-1.957
	c1.56,0,2.876,0.25,3.963,0.789c1.087,0.544,2.012,1.361,2.843,2.79l1.771-1.02l-1.828,0.916c0.518,1.035,0.817,1.957,1.089,2.869
	c0.209,0.682,0.396,1.364,0.688,2.077c0.218,0.534,0.502,1.091,0.913,1.619c0.611,0.799,1.51,1.464,2.572,1.889
	c1.069,0.434,2.31,0.688,3.868,0.847l0.203-2.036l-0.289,2.025c1.244,0.178,2.479,0.261,3.699,0.261
	c6.404-0.006,12.33-2.253,17.613-4.887l-1.83-3.66c-5.018,2.512-10.365,4.462-15.783,4.456c-1.034,0-2.074-0.07-3.12-0.22
	l-0.044-0.006l-0.043-0.004c-1.565-0.153-2.505-0.43-2.99-0.683c-0.369-0.195-0.509-0.336-0.667-0.546
	c-0.233-0.304-0.47-0.939-0.766-1.964c-0.305-1.013-0.695-2.353-1.456-3.87l-0.025-0.053l-0.031-0.052
	c-1.167-2.042-2.758-3.527-4.574-4.417c-1.815-0.896-3.791-1.214-5.775-1.214c-3.755,0.011-7.671,1.089-11.485,2.096
	c-3.8,1.02-7.5,1.969-10.468,1.958c-1.104,0.001-2.097-0.123-2.968-0.386l-0.021-0.006l-0.021-0.007
	c-1.342-0.373-2.297-0.846-3.064-1.389c-1.143-0.813-1.929-1.835-2.766-3.2c-0.834-1.354-1.678-3.029-2.926-4.831l-1.68,1.165
	l1.7-1.136c-1.177-1.763-2.412-3.085-3.877-3.966c-1.461-0.884-3.094-1.229-4.714-1.222c-1.914,0.005-3.87,0.412-6.171,0.918
	l-0.037,0.009l-0.04,0.011c-3.066,0.812-6.117,2.063-9.112,3.079c-2.991,1.021-5.906,1.794-8.592,1.79
	c-0.653,0-1.294-0.044-1.924-0.139l-0.302,2.022l0.335-2.018c-1.353-0.225-2.221-0.56-2.832-0.923
	c-0.461-0.275-0.797-0.571-1.119-0.942c-0.482-0.549-0.921-1.306-1.469-2.275c-0.548-0.963-1.211-2.12-2.197-3.324l-1.582,1.297
	l1.611-1.261c-1.32-1.693-2.93-2.89-4.658-3.613c-1.73-0.727-3.554-0.993-5.361-0.993c-3.129,0.005-6.264,0.771-9.253,1.567
	c-2.981,0.803-5.825,1.646-8.161,1.933L89.946,55.73z"/>
<path fill="#FFFFFF" d="M211.913,85.659c-1.869,0-3.767-0.143-5.647-0.422c-5.659-0.834-7.129-4.435-8.555-7.918
	c-0.217-0.533-0.439-1.084-0.689-1.648c-0.907-2.062-2.494-2.982-5.148-2.982c-2.567,0-5.576,0.866-8.232,1.631
	c-0.894,0.259-1.745,0.503-2.531,0.703c-3.12,0.791-6.488,1.52-9.98,1.52c-2.69,0-5.196-0.431-7.657-1.318
	c-3.479-1.246-5.664-4.588-7.778-7.819c-1.958-2.999-3.809-5.829-6.058-5.829c-0.176,0-0.357,0.015-0.545,0.044
	c-2.687,0.444-5.46,1.436-8.396,2.482c-4.229,1.508-8.603,3.07-13.099,3.07c-0.625,0-1.253-0.033-1.881-0.096
	c-7.578-0.79-9.771-4.203-13.092-9.372l-0.124-0.193c-1.537-2.396-3.635-3.463-6.801-3.463c-2.522,0-5.399,0.682-8.182,1.338
	c-2.536,0.601-5.156,1.221-7.559,1.331h-0.045L89.8,56.72c-1.579,0-2.878-1.11-3.089-2.637c-0.209-1.505,0.738-2.906,2.25-3.333
	c1.508-0.419,3.07-0.958,4.722-1.526c4.094-1.41,8.329-2.871,12.649-2.871c0.812,0,1.612,0.054,2.377,0.161
	c5.895,0.815,8.299,3.778,10.846,6.921c0.723,0.89,1.467,1.809,2.342,2.759c1.116,1.204,2.577,1.769,4.589,1.769
	c3.454,0,7.69-1.662,11.791-3.272c3.375-1.323,6.562-2.577,9.258-2.854c0.729-0.074,1.438-0.113,2.106-0.113
	c5.287,0,9.022,2.253,12.491,7.529c0.404,0.615,0.786,1.258,1.174,1.906c1.778,3.007,3.039,4.848,5.545,5.121
	c0.531,0.057,1.088,0.087,1.648,0.087c2.38,0,4.743-0.521,6.941-1.086c0.851-0.221,1.706-0.452,2.562-0.682
	c4.086-1.11,8.312-2.252,12.728-2.252c0.903,0,1.806,0.048,2.671,0.146c5.24,0.601,9.584,4.406,11.623,10.18
	c0.48,1.362,1.464,2.924,4.865,2.924c3.672,0,8.398-1.755,12.194-3.166c1.345-0.499,2.567-0.951,3.598-1.276
	c0.426-0.131,0.854-0.196,1.279-0.196c1.999,0,3.781,1.435,4.432,3.57c0.624,2.039-0.031,4.062-1.662,5.16
	C225.911,83.595,219.057,85.659,211.913,85.659z"/>
<path fill="#010101" d="M106.33,48.399c0.703,0,1.403,0.044,2.098,0.141c6.576,0.907,7.882,4.609,11.968,9.039
	c1.632,1.765,3.736,2.428,6.092,2.428c6.817,0,15.721-5.567,21.256-6.136c0.663-0.068,1.295-0.102,1.899-0.102
	c4.841,0,7.872,2.181,10.782,6.607c2.132,3.247,3.688,7.444,8.206,7.937c0.625,0.067,1.244,0.097,1.86,0.097
	c2.524,0,4.987-0.516,7.461-1.149c4.866-1.257,9.742-2.87,14.774-2.87c0.812,0,1.626,0.042,2.445,0.134
	c4.983,0.57,8.342,4.347,9.923,8.829c1.123,3.197,3.686,4.287,6.795,4.287c5.394,0,12.424-3.282,16.403-4.533
	c0.229-0.071,0.453-0.104,0.668-0.104c2.255,0,3.677,3.608,1.627,4.988c-5.614,3.768-12.06,5.621-18.677,5.621
	c-1.772,0-3.559-0.133-5.343-0.397c-5.251-0.775-5.861-4.252-7.676-8.367c-1.406-3.2-4.034-4.204-7.023-4.204
	c-3.756,0-8.081,1.587-11.263,2.396c-3.267,0.827-6.368,1.458-9.482,1.458c-2.289,0-4.586-0.341-6.959-1.197
	c-6.115-2.192-8.273-13.77-14.528-13.77c-0.282,0-0.575,0.024-0.875,0.072c-6.86,1.131-14.042,5.523-21.164,5.523
	c-0.558,0-1.115-0.028-1.672-0.085c-6.685-0.694-8.392-3.476-11.708-8.638c-2.156-3.364-5.173-4.401-8.519-4.401
	c-5.146,0-11.07,2.454-15.832,2.671l-0.064,0.001c-1.217,0-1.514-1.607-0.289-1.953C94.768,51.259,100.67,48.399,106.33,48.399
	 M106.33,44.308c-4.663,0-9.259,1.585-13.313,2.982c-1.623,0.56-3.156,1.088-4.6,1.489c-2.518,0.711-4.081,3.059-3.73,5.584
	c0.354,2.551,2.505,4.402,5.116,4.402h0.093l0.158-0.007c2.59-0.117,5.307-0.76,7.935-1.382c2.669-0.631,5.429-1.284,7.711-1.284
	c2.491,0,3.915,0.705,5.076,2.518l0.124,0.196c3.379,5.26,6.047,9.414,14.604,10.303c0.686,0.071,1.389,0.106,2.095,0.106
	c4.849,0,9.389-1.619,13.78-3.187c2.849-1.016,5.539-1.977,8.049-2.39l0.21-0.019c1.142,0,2.993,2.834,4.346,4.902
	c2.19,3.351,4.673,7.147,8.802,8.627c2.68,0.967,5.41,1.438,8.34,1.438c3.719,0,7.236-0.761,10.485-1.583
	c0.806-0.205,1.677-0.455,2.593-0.719c2.526-0.727,5.39-1.552,7.667-1.552c2.313,0,2.871,0.833,3.278,1.76
	c0.242,0.549,0.459,1.081,0.67,1.597c1.485,3.638,3.335,8.164,10.153,9.17c1.974,0.294,3.975,0.442,5.94,0.442
	c7.554,0,14.8-2.184,20.957-6.316c2.399-1.613,3.371-4.538,2.482-7.453c-0.916-3.004-3.484-5.021-6.39-5.021h-0.004
	c-0.632,0-1.265,0.098-1.88,0.289c-1.11,0.35-2.374,0.818-3.713,1.315c-3.642,1.352-8.173,3.033-11.475,3.033
	c-2.389,0-2.691-0.86-2.935-1.551c-2.306-6.536-7.283-10.847-13.317-11.539c-0.951-0.106-1.929-0.16-2.911-0.16
	c-4.688,0-9.049,1.182-13.267,2.325c-0.844,0.229-1.687,0.457-2.531,0.675c-2.065,0.529-4.279,1.021-6.438,1.021
	c-0.484,0-0.963-0.024-1.421-0.074c-1.514-0.164-2.343-1.323-4.005-4.127c-0.387-0.65-0.784-1.322-1.221-1.987
	c-2.589-3.937-6.541-8.452-14.202-8.453c-0.738,0-1.517,0.042-2.315,0.123c-2.974,0.306-6.287,1.606-9.796,2.984
	c-3.739,1.467-7.977,3.131-11.044,3.131c-1.824,0-2.609-0.597-3.09-1.116c-0.826-0.896-1.552-1.789-2.252-2.653
	c-2.686-3.312-5.461-6.736-12.159-7.659l0.005,0.001C108.133,44.369,107.237,44.308,106.33,44.308z"/>
<path fill="#010101" d="M88.68,85.725c0.225-0.014,0.449-0.025,0.674-0.036c1.115-0.056,2.002-1.249,2.1-2.273
	c0.12-1.287-0.909-2.78-2.302-2.782c-0.226,0-0.45,0-0.675,0.003c-1.399,0.013-2.66,0.813-2.802,2.316
	C85.504,84.76,87.043,85.826,88.68,85.725z"/>
<path fill="#010101" d="M103.569,85.498c0.656,0.044,1.229,0.067,1.846-0.222c1.476-0.692,1.252-2.724-0.148-3.327
	c-0.614-0.265-1.203-0.165-1.843-0.103C101.331,82.052,101.52,85.362,103.569,85.498z"/>
<path fill="#010101" d="M116.197,92.607c0.999-0.255,1.792-0.813,2.123-1.829c0.442-1.354-0.695-3.158-2.278-2.728
	c-0.203,0.055-0.424,0.06-0.634,0.082c-1.233,0.129-2.048,1.478-1.844,2.632C113.766,91.914,114.995,92.917,116.197,92.607z"/>
<path fill="#010101" d="M130.616,93.499c0.51,0.014,0.98-0.032,1.476-0.131c0.944-0.19,1.685-0.95,1.776-1.924
	c0.118-1.26-0.793-2.132-1.949-2.355c-0.504-0.099-0.961-0.101-1.482-0.054C127.901,89.264,128.089,93.424,130.616,93.499z"/>
<path fill="#010101" d="M147.33,100.351l0.102-0.051c2.125-1.087,1.892-3.982-0.219-4.911l-0.105-0.046
	c-1.624-0.712-3.494,0.624-3.651,2.295C143.265,99.655,145.467,101.304,147.33,100.351z"/>
<path fill="#010101" d="M162.066,105.858l0.1-0.378c0.192-0.742,0.152-1.461-0.366-2.074c-0.666-0.783-1.578-0.825-2.486-0.534
	l-0.378,0.12c-1.44,0.463-1.627,2.539-0.766,3.553C159.201,107.756,161.622,107.571,162.066,105.858z"/>
<path fill="#010101" d="M139.807,108.26c0.409-0.188,0.753-0.479,1.003-0.855c0.608-0.919,0.487-1.935-0.13-2.804
	c-0.267-0.374-0.66-0.591-1.07-0.766c-1.44-0.613-3.086,0.538-3.227,2.027C136.209,107.702,138.148,109.021,139.807,108.26z"/>
<path fill="#010101" d="M121.144,102.799c0.19-0.048,0.381-0.098,0.571-0.146c2.136-0.543,1.958-3.351-0.15-3.764
	c-0.194-0.036-0.388-0.072-0.582-0.11c-1.088-0.204-2.116,0.806-2.213,1.83C118.655,101.843,119.85,103.137,121.144,102.799z"/>
<path fill="#010101" d="M106.653,97.874l0.203-0.356c1.179-2.056-1.052-4.019-2.976-2.714l-0.341,0.232
	c-0.957,0.649-0.934,2.182-0.246,2.993C104.122,99.002,105.961,99.079,106.653,97.874z"/>
<path fill="#010101" d="M90.538,95.371c0.73-0.122,1.197-0.502,1.636-1.069c1.157-1.498-1-3.374-2.403-2.19
	c-0.384,0.292-0.173,0.247,0.632-0.133c-0.933-0.046-1.778,0.581-1.868,1.543C88.428,94.64,89.44,95.553,90.538,95.371z"/>
<path fill="#010101" d="M96.172,105.748c0.689-0.042,1.156-0.282,1.715-0.679c0.967-0.689,0.773-2.262-0.135-2.889
	c-0.549-0.378-1.082-0.553-1.746-0.562c-1.135-0.02-2.16,0.682-2.273,1.879C93.594,104.964,94.842,105.831,96.172,105.748z"/>
<path fill="#010101" d="M113.114,108.425c0.464-0.293,0.76-0.516,1.124-0.927c-0.259,0.22-0.52,0.439-0.78,0.66
	c1.109-0.661,1.68-1.994,0.744-3.095c-0.983-1.158-2.848-0.808-3.554,0.445c-0.44,0.783-0.506,1.683,0.112,2.41
	C111.283,108.533,112.375,108.891,113.114,108.425z"/>
<path fill="#010101" d="M131.393,110.819l0.091,0.273c-0.029,0.319-0.058,0.639-0.086,0.957l0.022-0.055
	c-0.176,0.253-0.352,0.502-0.527,0.755l-0.198,0.152c1.334-0.59,1.291-2.743-0.143-3.188c-1.181-0.369-2.25,0.077-2.691,1.263
	c-0.432,1.163,0.386,2.46,1.619,2.576C131.028,113.698,131.895,112.152,131.393,110.819z"/>
<path fill="#010101" d="M59.848,78.855c0.99-0.255,1.8-0.804,2.116-1.829c0.416-1.344-0.679-3.174-2.277-2.728
	c-0.202,0.056-0.42,0.06-0.628,0.081c-1.233,0.13-2.047,1.479-1.843,2.633C57.419,78.161,58.647,79.165,59.848,78.855z"/>
<path fill="#010101" d="M74.26,79.746c0.511,0.017,0.984-0.029,1.479-0.131c0.945-0.19,1.684-0.948,1.776-1.924
	c0.119-1.254-0.792-2.135-1.947-2.354c-0.508-0.097-0.965-0.1-1.487-0.055C71.542,75.503,71.737,79.664,74.26,79.746z"/>
<path fill="#010101" d="M64.791,89.049c0.191-0.051,0.383-0.098,0.576-0.144c0.829-0.194,1.479-0.813,1.562-1.691
	c0.104-1.118-0.7-1.86-1.712-2.071c-0.195-0.04-0.39-0.078-0.587-0.113c-1.09-0.194-2.116,0.798-2.213,1.83
	C62.301,88.086,63.497,89.396,64.791,89.049z"/>
<path fill="#010101" d="M75.044,97.067l0.09,0.276c-0.028,0.318-0.056,0.639-0.085,0.955l0.023-0.054
	c-0.176,0.251-0.352,0.503-0.528,0.753l-0.201,0.152c1.318-0.599,1.308-2.746-0.143-3.188c-1.186-0.362-2.238,0.079-2.689,1.266
	c-0.441,1.16,0.393,2.459,1.619,2.575C74.681,99.948,75.543,98.402,75.044,97.067z"/>
</svg>
