<?xml version="1.0" encoding="utf-8"?>
<!-- Generator: Adobe Illustrator 16.0.4, SVG Export Plug-In . SVG Version: 6.00 Build 0)  -->
<!DOCTYPE svg PUBLIC "-//W3C//DTD SVG 1.1//EN" "http://www.w3.org/Graphics/SVG/1.1/DTD/svg11.dtd">
<svg version="1.1" id="Layer_1" xmlns="http://www.w3.org/2000/svg" xmlns:xlink="http://www.w3.org/1999/xlink" x="0px" y="0px"
	 width="502px" height="125px" viewBox="0 0 502 125" enable-background="new 0 0 502 125" xml:space="preserve">
<g>
	<path fill="#D1D3D4" d="M151.721,72.561c0-4.236,3.214-6.355,6.245-6.355s6.245,2.119,6.245,6.355v1.314h-3.725v-1.314
		c0-1.79-1.169-2.63-2.52-2.63s-2.52,0.84-2.52,2.63v13.731c0,1.79,1.169,2.63,2.52,2.63s2.52-0.84,2.52-2.63v-4.894h-2.958v-3.287
		h6.684v8.18c0,4.237-3.214,6.355-6.245,6.355s-6.245-2.118-6.245-6.355V72.561z"/>
	<path fill="#D1D3D4" d="M174.8,66.425h11.102v3.506h-7.377v7.633h6.428v3.506h-6.428v7.633h7.377v3.725H174.8V66.425z"/>
	<path fill="#D1D3D4" d="M195.468,66.425h3.579l5.625,15.667h0.073V66.425h3.725v26.003h-3.506l-5.698-15.631h-0.073v15.631h-3.725
		V66.425z"/>
	<path fill="#D1D3D4" d="M219.13,66.425h11.102v3.506h-7.377v7.633h6.428v3.506h-6.428v7.633h7.377v3.725H219.13V66.425z"/>
	<path fill="#D1D3D4" d="M239.944,66.425h5.99c4.419,0,6.574,2.593,6.574,7.633c0,2.995-0.84,5.186-3.214,6.501l4.017,11.869h-3.944
		l-3.47-11.102h-2.227v11.102h-3.726V66.425z M243.67,78.039h2.118c2.593,0,2.995-1.461,2.995-4.054
		c0-2.629-0.438-4.054-3.178-4.054h-1.935V78.039z"/>
	<path fill="#D1D3D4" d="M266.93,66.425h3.104l5.807,26.003h-3.725l-1.096-5.587h-5.076l-1.096,5.587h-3.725L266.93,66.425z
		 M268.5,73.912h-0.073l-1.826,9.422h3.725L268.5,73.912z"/>
	<path fill="#D1D3D4" d="M284.969,66.425h3.725v22.278h7.377v3.725h-11.102V66.425z"/>
	<path fill="#D1D3D4" d="M319.878,66.425h11.103v3.506h-7.377v7.633h6.428v3.506h-6.428v7.633h7.377v3.725h-11.103V66.425z"/>
	<path fill="#D1D3D4" d="M352.525,86.621c0,3.214-2.593,6.026-5.917,6.026c-2.849,0-6.136-1.388-6.136-6.136V72.195
		c0-3.397,2.448-5.99,6.063-5.99c3.433,0,5.989,2.593,5.989,6.209v1.46H348.8v-1.241c0-1.46-0.876-2.703-2.301-2.703
		c-1.862,0-2.301,1.278-2.301,3.032v13.293c0,1.498,0.585,2.666,2.265,2.666c1.022,0,2.337-0.584,2.337-2.63v-1.278h3.725V86.621z"
		/>
	<path fill="#D1D3D4" d="M374.691,86.621c0,3.214-2.593,6.026-5.917,6.026c-2.849,0-6.136-1.388-6.136-6.136V72.195
		c0-3.397,2.448-5.99,6.063-5.99c3.433,0,5.989,2.593,5.989,6.209v1.46h-3.725v-1.241c0-1.46-0.876-2.703-2.301-2.703
		c-1.862,0-2.301,1.278-2.301,3.032v13.293c0,1.498,0.584,2.666,2.264,2.666c1.023,0,2.337-0.584,2.337-2.63v-1.278h3.725V86.621z"
		/>
	<path fill="#D1D3D4" d="M385.023,66.425h11.103v3.506h-7.376v7.633h6.427v3.506h-6.427v7.633h7.376v3.725h-11.103V66.425z"/>
	<path fill="#D1D3D4" d="M405.692,66.425h3.578l5.625,15.667h0.073V66.425h3.726v26.003h-3.507l-5.697-15.631h-0.073v15.631h-3.725
		V66.425z"/>
	<path fill="#D1D3D4" d="M431.802,69.931h-4.311v-3.506h12.343v3.506h-4.309v22.497h-3.724V69.931z"/>
	<path fill="#D1D3D4" d="M448.781,66.425h5.989c4.417,0,6.574,2.593,6.574,7.633c0,2.995-0.84,5.186-3.214,6.501l4.018,11.869
		h-3.946l-3.469-11.102h-2.229v11.102h-3.724V66.425z M452.505,78.039h2.12c2.592,0,2.994-1.461,2.994-4.054
		c0-2.629-0.439-4.054-3.178-4.054h-1.937V78.039z"/>
	<path fill="#D1D3D4" d="M471.75,66.425h3.724v26.003h-3.724V66.425z"/>
	<path fill="#D1D3D4" d="M498.225,86.621c0,3.214-2.593,6.026-5.915,6.026c-2.849,0-6.135-1.388-6.135-6.136V72.195
		c0-3.397,2.445-5.99,6.061-5.99c3.434,0,5.989,2.593,5.989,6.209v1.46h-3.724v-1.241c0-1.46-0.877-2.703-2.303-2.703
		c-1.86,0-2.3,1.278-2.3,3.032v13.293c0,1.498,0.585,2.666,2.266,2.666c1.022,0,2.337-0.584,2.337-2.63v-1.278h3.724V86.621z"/>
</g>
<ellipse transform="matrix(0.7104 0.7038 -0.7038 0.7104 75.5748 -68.8217)" opacity="0.5" fill="none" stroke="#E6E7E8" stroke-width="2" stroke-miterlimit="1" cx="121.412" cy="57.42" rx="14.172" ry="58.026"/>
<ellipse transform="matrix(0.7764 -0.6302 0.6302 0.7764 -20.4537 61.2079)" opacity="0.5" fill="none" stroke="#E6E7E8" stroke-width="2" stroke-miterlimit="1" cx="76.041" cy="59.432" rx="11.28" ry="46.185"/>
<radialGradient id="SVGID_1_" cx="94.7588" cy="76.7339" r="9.0007" fx="91.2149" fy="72.5455" gradientUnits="userSpaceOnUse">
	<stop  offset="0.0885" style="stop-color:#FFFFFF"/>
	<stop  offset="0.1659" style="stop-color:#F1F1EF"/>
	<stop  offset="0.3957" style="stop-color:#CBCBC3"/>
	<stop  offset="0.6021" style="stop-color:#B0AFA3"/>
	<stop  offset="0.7755" style="stop-color:#9F9E90"/>
	<stop  offset="0.8951" style="stop-color:#999889"/>
</radialGradient>
<circle fill="url(#SVGID_1_)" cx="94.759" cy="76.733" r="9.001"/>
</svg>
