<?xml version="1.0" encoding="utf-8"?>
<!-- Generator: Adobe Illustrator 16.0.4, SVG Export Plug-In . SVG Version: 6.00 Build 0)  -->
<!DOCTYPE svg PUBLIC "-//W3C//DTD SVG 1.1//EN" "http://www.w3.org/Graphics/SVG/1.1/DTD/svg11.dtd">
<svg version="1.1" id="Layer_1" xmlns="http://www.w3.org/2000/svg" xmlns:xlink="http://www.w3.org/1999/xlink" x="0px" y="0px"
	 width="461.5px" height="109px" viewBox="40.5 0 461.5 109" enable-background="new 40.5 0 461.5 109" xml:space="preserve">
<g>
	<path d="M151.721,72.561c0-4.235,3.214-6.354,6.245-6.354s6.245,2.119,6.245,6.354v1.314h-3.726v-1.314
		c0-1.789-1.169-2.629-2.52-2.629c-1.352,0-2.521,0.84-2.521,2.629v13.731c0,1.79,1.169,2.63,2.521,2.63
		c1.351,0,2.52-0.84,2.52-2.63v-4.894h-2.958v-3.287h6.685v8.18c0,4.236-3.214,6.355-6.245,6.355s-6.245-2.119-6.245-6.355
		L151.721,72.561L151.721,72.561z"/>
	<path d="M174.8,66.425h11.102v3.507h-7.377v7.633h6.429v3.506h-6.429v7.633h7.377v3.725H174.8V66.425z"/>
	<path d="M195.468,66.425h3.579l5.625,15.667h0.073V66.425h3.725v26.003h-3.506l-5.698-15.631h-0.073v15.631h-3.725V66.425z"/>
	<path d="M219.13,66.425h11.102v3.507h-7.377v7.633h6.429v3.506h-6.429v7.633h7.377v3.725H219.13V66.425z"/>
	<path d="M239.944,66.425h5.99c4.419,0,6.574,2.593,6.574,7.634c0,2.994-0.84,5.186-3.214,6.5l4.017,11.869h-3.943l-3.471-11.102
		h-2.227v11.102h-3.727V66.425z M243.67,78.039h2.118c2.593,0,2.995-1.461,2.995-4.055c0-2.629-0.438-4.053-3.179-4.053h-1.935
		V78.039z"/>
	<path d="M266.93,66.425h3.104l5.807,26.003h-3.725l-1.097-5.587h-5.076l-1.096,5.587h-3.725L266.93,66.425z M268.5,73.912h-0.073
		l-1.826,9.422h3.726L268.5,73.912z"/>
	<path d="M284.969,66.425h3.725v22.278h7.377v3.725h-11.102V66.425L284.969,66.425z"/>
	<path d="M319.878,66.425h11.103v3.507h-7.377v7.633h6.428v3.506h-6.428v7.633h7.377v3.725h-11.103V66.425z"/>
	<path d="M352.525,86.621c0,3.214-2.593,6.025-5.917,6.025c-2.849,0-6.136-1.388-6.136-6.135V72.195c0-3.397,2.448-5.99,6.063-5.99
		c3.433,0,5.988,2.593,5.988,6.209v1.46H348.8v-1.241c0-1.46-0.876-2.703-2.301-2.703c-1.862,0-2.302,1.278-2.302,3.032v13.293
		c0,1.498,0.586,2.666,2.266,2.666c1.021,0,2.337-0.584,2.337-2.63v-1.277h3.725V86.621L352.525,86.621z"/>
	<path d="M374.691,86.621c0,3.214-2.593,6.025-5.917,6.025c-2.849,0-6.136-1.388-6.136-6.135V72.195c0-3.397,2.448-5.99,6.063-5.99
		c3.433,0,5.988,2.593,5.988,6.209v1.46h-3.725v-1.241c0-1.46-0.876-2.703-2.301-2.703c-1.862,0-2.302,1.278-2.302,3.032v13.293
		c0,1.498,0.585,2.666,2.265,2.666c1.022,0,2.337-0.584,2.337-2.63v-1.277h3.725v1.607H374.691z"/>
	<path d="M385.023,66.425h11.104v3.507h-7.376v7.633h6.427v3.506h-6.427v7.633h7.376v3.725h-11.104V66.425z"/>
	<path d="M405.692,66.425h3.578l5.625,15.667h0.073V66.425h3.726v26.003h-3.507l-5.697-15.631h-0.072v15.631h-3.726V66.425
		L405.692,66.425z"/>
	<path d="M431.802,69.932h-4.312v-3.507h12.344v3.507h-4.31v22.496h-3.724L431.802,69.932L431.802,69.932z"/>
	<path d="M448.781,66.425h5.989c4.417,0,6.574,2.593,6.574,7.634c0,2.994-0.84,5.186-3.214,6.5l4.018,11.869h-3.946l-3.469-11.102
		h-2.229v11.102h-3.725L448.781,66.425L448.781,66.425z M452.505,78.039h2.12c2.592,0,2.993-1.461,2.993-4.055
		c0-2.629-0.438-4.053-3.178-4.053h-1.937L452.505,78.039L452.505,78.039z"/>
	<path d="M471.75,66.425h3.724v26.003h-3.724V66.425z"/>
	<path d="M498.225,86.621c0,3.214-2.593,6.025-5.915,6.025c-2.849,0-6.135-1.388-6.135-6.135V72.195c0-3.397,2.444-5.99,6.061-5.99
		c3.435,0,5.989,2.593,5.989,6.209v1.46h-3.724v-1.241c0-1.46-0.878-2.703-2.304-2.703c-1.859,0-2.3,1.278-2.3,3.032v13.293
		c0,1.498,0.585,2.666,2.266,2.666c1.022,0,2.338-0.584,2.338-2.63v-1.277h3.724V86.621z"/>
</g>
<ellipse transform="matrix(0.7038 -0.7104 0.7104 0.7038 -4.8276 103.26)" opacity="0.5" fill="none" stroke="#000000" stroke-width="2" stroke-miterlimit="1" enable-background="new    " cx="121.414" cy="57.419" rx="58.026" ry="14.172"/>
<ellipse transform="matrix(-0.6302 -0.7764 0.7764 -0.6302 77.8172 155.9217)" opacity="0.5" fill="none" stroke="#000000" stroke-width="2" stroke-miterlimit="1" enable-background="new    " cx="76.039" cy="59.43" rx="46.184" ry="11.279"/>
<radialGradient id="SVGID_1_" cx="249.8137" cy="-242.9082" r="9.001" fx="246.2697" fy="-247.0967" gradientTransform="matrix(1 0 0 -1 -155.0552 -166.1748)" gradientUnits="userSpaceOnUse">
	<stop  offset="0.0885" style="stop-color:#FFFFFF"/>
	<stop  offset="0.1659" style="stop-color:#F1F1EF"/>
	<stop  offset="0.3957" style="stop-color:#CBCBC3"/>
	<stop  offset="0.6021" style="stop-color:#B0AFA3"/>
	<stop  offset="0.7755" style="stop-color:#9F9E90"/>
	<stop  offset="0.8951" style="stop-color:#999889"/>
</radialGradient>
<circle fill="url(#SVGID_1_)" cx="94.759" cy="76.733" r="9.001"/>
</svg>
